<?xml version="1.0" standalone="no"?>
<!DOCTYPE svg PUBLIC "-//W3C//DTD SVG 20010904//EN"
 "http://www.w3.org/TR/2001/REC-SVG-20010904/DTD/svg10.dtd">
<svg version="1.0" xmlns="http://www.w3.org/2000/svg"
 width="496.000000pt" height="154.000000pt" viewBox="0 0 496.000000 154.000000"
 preserveAspectRatio="xMidYMid meet">

<g transform="translate(0.000000,154.000000) scale(0.100000,-0.100000)"
fill="#000000" stroke="none">
<path d="M855 1228 l0 -103 -45 0 c-38 0 -45 -3 -48 -21 -4 -27 15 -42 58 -46
l35 -3 0 -130 c0 -105 -4 -137 -18 -167 -21 -41 -43 -54 -63 -37 -10 8 -14 38
-14 103 0 93 -9 123 -40 126 -39 5 -40 2 -40 -100 0 -87 -3 -103 -20 -120 -11
-11 -26 -20 -33 -20 -50 0 -64 114 -24 190 26 49 90 90 139 90 26 0 29 3 26
28 -3 23 -8 28 -37 30 -75 7 -166 -53 -202 -134 -10 -22 -21 -67 -25 -100 -7
-63 -23 -102 -48 -123 -14 -12 -16 -1 -16 111 0 126 -7 154 -40 158 -37 5 -39
1 -33 -63 11 -124 -47 -217 -100 -159 -12 13 -17 36 -17 72 0 100 60 175 149
187 34 5 41 9 41 28 0 25 -17 35 -58 35 -70 -1 -166 -79 -193 -156 -21 -61
-18 -153 7 -194 23 -40 73 -62 114 -50 55 17 55 17 58 -24 3 -34 -1 -43 -37
-78 -54 -51 -81 -106 -81 -163 0 -77 30 -114 92 -115 71 0 98 55 98 203 l0 88
42 52 c24 29 44 54 45 56 1 1 12 -4 25 -13 29 -21 97 -21 126 0 21 15 25 15
41 0 25 -23 87 -20 119 4 l25 20 22 -20 c26 -25 91 -27 123 -4 22 15 24 15 36
-1 7 -10 22 -16 37 -13 23 3 24 6 29 113 5 101 8 115 35 158 29 45 59 67 73
52 4 -4 9 -72 12 -152 6 -163 10 -173 83 -173 30 0 46 7 69 31 30 30 31 30 52
11 35 -32 62 -42 116 -42 112 0 171 69 193 228 l13 87 37 3 c20 2 37 1 37 -1
0 -2 -9 -39 -20 -82 -31 -123 -22 -211 25 -229 38 -14 94 -6 123 19 17 14 32
25 35 25 4 0 23 -11 43 -25 51 -34 136 -35 186 -2 l34 24 30 -23 c35 -29 107
-33 142 -8 21 15 25 15 41 0 23 -21 85 -20 117 1 40 26 72 101 87 204 l13 94
37 3 c20 2 37 1 37 -1 0 -2 -9 -39 -20 -82 -31 -123 -22 -211 25 -229 43 -16
94 -6 130 25 l36 32 22 -20 c12 -11 32 -26 44 -32 30 -15 123 -13 152 3 21 11
30 11 57 0 42 -18 104 -18 146 0 18 7 57 21 87 30 l53 18 27 -32 c36 -43 90
-45 132 -4 l29 27 20 -26 c29 -37 96 -38 130 -2 l23 24 32 -24 c41 -32 105
-34 147 -4 l29 21 24 -22 c20 -19 31 -21 72 -16 65 8 79 8 141 0 38 -5 63 -2
90 9 20 8 56 20 78 26 76 20 135 91 113 133 -12 23 -38 23 -46 0 -9 -25 -54
-72 -70 -72 -9 0 -13 14 -13 40 0 45 -15 79 -65 149 -24 33 -31 51 -25 61 15
24 12 80 -5 86 -8 4 -15 14 -15 24 0 16 -9 17 -105 12 l-105 -5 0 95 c0 101
-7 118 -50 118 l-25 0 0 -102 c0 -90 -2 -103 -17 -106 -16 -3 -18 5 -18 55 0
75 -16 130 -41 143 -34 18 -80 8 -103 -23 -20 -26 -21 -45 -26 -265 -4 -203
-8 -242 -23 -274 -10 -20 -26 -39 -35 -43 -33 -12 -42 22 -42 165 0 146 -4
160 -49 160 l-26 0 3 -112 c3 -102 1 -117 -20 -157 -30 -59 -50 -71 -77 -47
-18 16 -21 31 -20 90 0 39 8 101 18 139 15 56 15 69 4 79 -10 8 -20 8 -37 0
-18 -8 -26 -25 -39 -86 -9 -42 -17 -90 -17 -106 0 -31 -43 -90 -66 -90 -10 0
-14 12 -14 40 0 45 -15 79 -65 149 -26 36 -31 50 -24 64 6 10 9 32 7 50 -4 44
-39 49 -79 11 -24 -23 -28 -35 -27 -73 2 -52 -31 -180 -52 -206 -8 -9 -19 -27
-25 -39 -17 -33 -75 -43 -116 -20 -18 11 -34 24 -35 29 -2 6 18 24 43 40 149
96 94 326 -55 235 -42 -26 -82 -108 -82 -169 0 -91 -41 -162 -84 -145 -34 13
-33 52 5 226 12 52 11 59 -6 78 -14 15 -30 20 -70 20 -45 0 -55 4 -69 25 -18
27 -63 34 -84 13 -18 -18 -14 -56 8 -75 14 -12 20 -30 20 -58 0 -50 -17 -150
-32 -188 -14 -36 -44 -53 -64 -36 -11 9 -14 59 -14 281 0 166 -4 277 -10 289
-7 11 -21 19 -38 19 l-27 0 3 -129 4 -130 -43 -11 c-85 -23 -159 -131 -159
-232 0 -39 -46 -87 -90 -94 -34 -5 -101 24 -99 43 0 5 21 22 46 38 149 96 94
326 -55 235 -47 -29 -82 -108 -82 -187 0 -34 -4 -73 -10 -87 -11 -29 -42 -48
-64 -40 -33 13 -32 53 5 226 12 52 11 59 -6 78 -14 15 -30 20 -70 20 -45 0
-55 4 -69 25 -18 27 -63 34 -84 13 -19 -19 -14 -55 9 -77 20 -18 21 -27 16
-83 -13 -129 -50 -194 -117 -204 -34 -5 -101 24 -99 43 0 5 21 22 46 38 149
96 94 326 -55 235 -48 -30 -82 -107 -82 -190 0 -74 -28 -137 -56 -126 -9 3
-18 6 -20 6 -2 0 -4 56 -4 124 0 67 -5 137 -11 155 -22 62 -83 69 -136 16 -19
-19 -37 -35 -39 -35 -11 0 -2 77 11 94 19 26 19 56 0 56 -12 0 -15 15 -15 78
0 85 -8 102 -50 102 l-25 0 0 -92 0 -93 -52 -3 -53 -3 0 93 c0 101 -7 118 -49
118 l-26 0 0 -102z m3099 16 c15 -38 -4 -226 -25 -249 -5 -5 -9 48 -9 128 0
110 3 137 14 137 8 0 17 -7 20 -16z m-2917 -299 c2 -94 0 -118 -20 -164 -26
-63 -47 -81 -71 -62 -13 11 -16 40 -16 178 l0 164 53 -3 52 -3 2 -110z m3021
-10 c2 -108 0 -124 -20 -165 -30 -59 -71 -76 -99 -41 -24 30 -25 91 0 139 10
20 28 69 41 107 29 88 28 87 53 83 21 -3 22 -9 25 -123z m206 68 c-2 -72 -39
-214 -59 -226 -8 -4 -15 -19 -15 -33 0 -29 -24 -42 -45 -24 -12 10 -15 43 -15
176 l0 164 68 0 67 0 -1 -57z m-2734 -61 c0 -37 -19 -75 -48 -99 -27 -22 -33
-14 -26 35 9 63 30 102 54 102 16 0 20 -7 20 -38z m580 0 c0 -37 -19 -75 -48
-99 -27 -22 -33 -14 -26 35 9 63 30 102 54 102 16 0 20 -7 20 -38z m328 -77
c2 -100 1 -110 -19 -131 -28 -30 -46 -30 -76 -2 -19 18 -23 32 -23 81 0 34 7
74 17 94 16 35 68 76 88 70 6 -2 11 -51 13 -112z m612 77 c0 -37 -19 -75 -48
-99 -27 -22 -33 -14 -26 35 9 63 30 102 54 102 16 0 20 -7 20 -38z m252 -49
c44 -51 59 -114 34 -148 -13 -17 -17 -18 -55 -5 -42 14 -42 14 -36 54 9 57 27
116 35 116 4 0 14 -8 22 -17z m1040 0 c45 -51 59 -114 34 -148 -14 -19 -16
-19 -58 -4 -23 9 -43 21 -42 25 4 32 38 144 44 144 4 0 14 -8 22 -17z m-3975
-470 c-6 -75 -21 -98 -43 -68 -18 23 -12 87 12 123 25 38 37 16 31 -55z"/>
</g>
</svg>
