<?xml version="1.0" standalone="no"?>
<!DOCTYPE svg PUBLIC "-//W3C//DTD SVG 20010904//EN"
 "http://www.w3.org/TR/2001/REC-SVG-20010904/DTD/svg10.dtd">
<svg version="1.0" xmlns="http://www.w3.org/2000/svg"
 width="1192.000000pt" height="209.000000pt" viewBox="0 0 1192.000000 209.000000"
 preserveAspectRatio="xMidYMid meet">

<g transform="translate(0.000000,209.000000) scale(0.100000,-0.100000)"
fill="#000000" stroke="none">
<path d="M1434 1486 c-18 -8 -38 -28 -48 -50 -15 -33 -17 -70 -14 -364 l3
-327 27 -57 c35 -76 98 -142 167 -175 49 -24 68 -28 146 -28 71 0 100 5 137
22 71 32 141 103 174 176 25 53 29 74 29 152 0 76 -4 99 -27 146 -36 79 -89
133 -165 171 -58 29 -75 32 -149 31 -73 0 -92 -4 -146 -31 -34 -17 -64 -29
-66 -27 -2 2 22 20 53 40 l57 37 -3 113 c-4 96 -7 116 -24 135 -44 48 -95 60
-151 36z m111 -51 c25 -24 33 -55 16 -55 -5 0 -11 9 -14 19 -3 11 -20 29 -38
40 -30 19 -32 21 -11 21 13 0 34 -11 47 -25z m245 -291 c131 -39 230 -162 230
-285 0 -55 -16 -41 -23 20 -16 132 -138 251 -259 251 -18 0 -28 5 -28 15 0 19
13 19 80 -1z m-22 -190 c33 -23 52 -67 52 -124 0 -86 -36 -132 -105 -132 -69
0 -105 46 -105 132 0 84 42 140 105 140 17 0 41 -7 53 -16z"/>
<path d="M2252 1480 c-18 -11 -37 -32 -42 -46 -6 -15 -10 -209 -10 -480 l0
-454 115 0 115 0 0 463 c0 507 2 490 -60 522 -40 20 -79 19 -118 -5z m97 -24
c30 -16 65 -76 44 -76 -5 0 -16 14 -25 30 -10 18 -25 30 -38 30 -11 0 -20 7
-20 15 0 19 4 19 39 1z"/>
<path d="M10472 1480 c-18 -11 -37 -32 -42 -46 -6 -15 -10 -209 -10 -480 l0
-454 115 0 115 0 0 173 c0 188 9 237 47 273 46 42 123 28 155 -29 9 -15 15
-87 18 -217 l5 -195 115 0 115 0 3 160 c2 88 -2 189 -8 224 -21 123 -93 221
-198 269 -100 45 -245 32 -334 -30 -16 -11 -28 -15 -28 -11 0 5 25 24 55 43
l54 35 1 107 c0 59 -4 118 -10 132 -12 33 -66 66 -105 66 -16 0 -45 -9 -63
-20z m118 -40 c11 -11 20 -30 20 -42 0 -20 -2 -19 -20 10 -11 17 -26 32 -34
32 -8 0 -18 5 -21 10 -11 19 35 10 55 -10z m295 -314 c57 -27 118 -84 146
-138 24 -48 43 -134 34 -156 -5 -11 -12 6 -21 52 -25 129 -118 225 -234 242
-53 8 -62 12 -54 26 9 14 68 2 129 -26z"/>
<path d="M4718 1454 c-47 -25 -58 -61 -58 -182 l0 -110 28 -11 c15 -6 41 -23
57 -37 35 -29 31 -28 -50 11 -52 26 -71 30 -145 30 -71 0 -94 -5 -141 -27
-115 -53 -189 -160 -197 -284 -8 -126 38 -227 135 -298 176 -128 427 -62 519
137 l29 62 0 328 0 329 -37 34 c-42 38 -92 45 -140 18z m113 -43 c16 -16 29
-37 29 -45 0 -23 -14 -20 -25 6 -6 13 -22 29 -37 36 -16 7 -28 17 -28 23 0 19
32 8 61 -20z m-211 -498 c37 -33 49 -91 30 -147 -15 -46 -48 -69 -101 -68 -76
1 -122 76 -100 159 22 82 110 111 171 56z"/>
<path d="M6348 1454 c-47 -25 -58 -61 -58 -182 l0 -110 28 -11 c15 -6 41 -23
57 -37 35 -29 31 -28 -50 11 -52 26 -71 30 -145 30 -71 0 -94 -5 -142 -27 -69
-32 -134 -96 -168 -163 -35 -71 -40 -188 -11 -266 106 -282 509 -293 637 -16
l29 62 0 328 0 329 -37 34 c-42 38 -92 45 -140 18z m113 -43 c16 -16 29 -37
29 -45 0 -23 -14 -20 -25 6 -6 13 -22 29 -37 36 -16 7 -28 17 -28 23 0 19 32
8 61 -20z m-211 -498 c37 -33 49 -91 30 -147 -15 -46 -48 -69 -101 -68 -50 1
-84 29 -101 84 -34 116 87 207 172 131z"/>
<path d="M2829 1177 c-103 -29 -181 -96 -228 -197 -22 -46 -26 -69 -25 -145 0
-78 3 -97 27 -143 53 -102 143 -165 261 -183 34 -5 122 -8 196 -7 l135 3 3 92
3 91 -164 4 c-135 2 -168 6 -190 21 -15 9 -27 22 -27 27 0 6 68 10 175 10
l175 0 32 29 c27 24 32 36 36 89 6 81 -18 148 -74 211 -26 28 -67 61 -97 75
-65 30 -173 41 -238 23z m143 -28 c97 -20 171 -77 206 -159 25 -57 37 -120 22
-120 -5 0 -10 6 -10 13 0 43 -35 123 -72 163 -42 46 -123 84 -178 84 -20 0
-30 5 -30 15 0 18 -4 18 62 4z m-13 -160 c31 -11 56 -41 44 -53 -7 -7 -183 -9
-183 -2 0 19 18 40 44 52 38 16 54 17 95 3z"/>
<path d="M3660 1181 c-97 -21 -196 -103 -242 -198 -21 -45 -23 -62 -26 -265
l-3 -218 115 0 116 0 0 173 c0 194 8 235 51 271 47 40 110 30 146 -23 15 -22
19 -57 23 -221 l5 -195 115 0 115 0 3 155 c1 85 -2 183 -7 218 -20 129 -92
232 -197 278 -58 25 -158 37 -214 25z m190 -52 c53 -24 113 -78 145 -134 29
-51 52 -152 38 -166 -7 -7 -12 6 -17 42 -17 129 -113 234 -231 254 -58 10 -67
14 -59 26 8 14 64 4 124 -22z"/>
<path d="M5301 1180 c-88 -19 -182 -92 -225 -178 -73 -143 -46 -306 65 -406
83 -75 134 -89 342 -94 l177 -4 0 96 0 96 -147 1 c-156 0 -215 11 -221 42 -3
16 10 17 163 17 188 0 211 6 240 66 34 73 -2 201 -78 277 -73 73 -206 109
-316 87z m204 -54 c57 -26 108 -74 136 -128 23 -44 37 -128 22 -128 -6 0 -13
21 -17 47 -13 98 -95 183 -198 204 -76 16 -80 18 -73 29 9 14 69 3 130 -24z
m-54 -152 c39 -35 25 -44 -71 -44 -69 0 -90 3 -90 13 0 15 26 41 50 50 26 11
91 0 111 -19z"/>
<path d="M7713 1180 c-132 -28 -234 -139 -263 -287 -22 -109 16 -221 101 -297
83 -75 134 -89 342 -94 l177 -4 0 96 0 96 -142 0 c-155 0 -212 10 -228 40 -10
19 -6 20 160 20 201 0 219 6 245 74 43 112 -40 273 -169 332 -58 26 -161 37
-223 24z m197 -52 c64 -27 126 -92 150 -156 22 -57 26 -102 10 -102 -5 0 -10
10 -10 23 0 103 -102 213 -215 232 -57 9 -67 14 -60 25 8 14 67 3 125 -22z
m-49 -154 c39 -36 25 -44 -76 -44 -52 0 -95 4 -95 8 0 11 40 47 60 55 26 11
91 0 111 -19z"/>
<path d="M8510 1181 c-97 -21 -184 -92 -237 -193 -25 -48 -28 -63 -28 -153 0
-90 3 -105 27 -152 41 -77 82 -118 150 -153 124 -61 247 -28 248 68 0 68 -28
96 -120 119 -46 11 -84 79 -75 133 10 52 32 88 65 105 39 20 62 19 94 -6 47
-37 51 -53 56 -254 l5 -190 115 0 115 0 3 169 c1 93 -2 192 -7 221 -22 117
-95 215 -194 260 -57 26 -160 39 -217 26z m195 -55 c64 -30 121 -87 151 -152
28 -59 43 -144 25 -144 -6 0 -11 11 -11 23 0 40 -27 117 -56 159 -37 54 -101
96 -166 109 -76 16 -80 18 -72 30 9 15 66 3 129 -25z"/>
<path d="M9350 1181 c-96 -20 -195 -99 -239 -191 -25 -53 -26 -62 -29 -272
l-3 -218 115 0 116 0 0 175 c0 229 14 265 113 284 80 15 117 52 117 117 0 84
-79 127 -190 105z m119 -47 c30 -25 42 -64 21 -64 -5 0 -10 9 -10 21 0 14 -10
24 -30 32 -16 6 -30 17 -30 24 0 20 15 16 49 -13z"/>
<path d="M9921 1180 c-91 -19 -182 -95 -229 -189 -22 -45 -28 -73 -31 -144 -3
-83 -1 -93 28 -152 38 -77 102 -136 180 -166 49 -19 77 -22 221 -23 l165 -1 3
93 3 92 -128 1 c-199 0 -238 25 -238 147 1 79 21 124 66 147 41 22 75 13 133
-35 40 -33 56 -40 91 -40 57 0 95 41 95 103 0 35 -6 46 -46 83 -76 71 -207
106 -313 84z m194 -49 c43 -19 105 -67 105 -82 0 -5 -20 7 -45 25 -29 22 -65
39 -102 46 -81 17 -85 18 -77 31 8 13 64 4 119 -20z"/>
<path d="M6785 1161 c-157 -72 -158 -321 -1 -392 34 -15 66 -19 187 -19 122 0
149 -3 160 -16 11 -14 10 -18 -6 -30 -15 -11 -66 -14 -232 -14 l-213 0 0 -96
0 -96 243 4 c225 3 245 5 282 24 50 27 69 48 94 104 36 79 24 167 -30 233 -53
64 -75 71 -254 77 -152 5 -160 6 -160 25 0 19 8 20 190 25 162 4 195 8 218 23
38 24 51 61 37 103 -20 60 -36 64 -267 64 -181 0 -213 -3 -248 -19z m462 -33
c24 -22 31 -48 13 -48 -5 0 -10 7 -10 15 0 9 -11 20 -25 25 -14 5 -25 14 -25
20 0 17 22 11 47 -12z m-80 -233 c48 -20 71 -41 94 -87 20 -39 26 -104 9 -93
-5 3 -10 17 -10 31 0 54 -44 107 -106 129 -21 7 -40 18 -42 24 -5 15 12 14 55
-4z"/>
</g>
</svg>
